<svg xmlns="http://www.w3.org/2000/svg" width="1200" height="630" viewBox="0 0 1200 630">
  <defs>
    <linearGradient id="bg" x1="0" y1="0" x2="1200" y2="630" gradientUnits="userSpaceOnUse">
      <stop stop-color="#FDFAF6"/>
      <stop offset="1" stop-color="#F7F3EE"/>
    </linearGradient>
    <linearGradient id="mark" x1="0" y1="0" x2="160" y2="160" gradientUnits="userSpaceOnUse">
      <stop stop-color="#1A8A6E"/>
      <stop offset="1" stop-color="#0E4637"/>
    </linearGradient>
  </defs>
  <rect width="1200" height="630" fill="url(#bg)"/>
  <g opacity="0.08" stroke="#1A8A6E" stroke-width="1">
    <path d="M0 120H1200M0 240H1200M0 360H1200M0 480H1200M120 0V630M320 0V630M520 0V630M720 0V630M920 0V630M1120 0V630"/>
  </g>
  <g transform="translate(120,195)">
    <rect width="160" height="160" rx="36" fill="url(#mark)"/>
    <path fill-rule="evenodd" clip-rule="evenodd" d="M40 125V77.5C40 54 58 35 80 35C102 35 120 54 120 77.5V125H105V77.5C105 62.5 94 50 80 50C66 50 55 62.5 55 77.5V125H40Z" fill="#fff"/>
    <rect x="73" y="80" width="14" height="45" rx="7" fill="#fff" opacity="0.85"/>
  </g>
  <text x="310" y="295" font-family="system-ui, -apple-system, sans-serif" font-size="96" font-weight="650" letter-spacing="-2" fill="#0a0a0a">portway</text>
  <text x="312" y="350" font-family="system-ui, -apple-system, sans-serif" font-size="30" font-weight="400" fill="#6B7280">One local endpoint for your AI providers.</text>
</svg>
